# Blender v2.79 (sub 0) OBJ File: ''
# www.blender.org
mtllib Tile1.mtl
o Plane.001
v 6.545455 0.000001 -6.545455
v 8.000000 0.000001 -6.545455
v 8.000000 0.000001 -8.000000
v 6.545455 0.000001 -8.000000
v -8.000000 0.000001 -6.545455
v -6.545455 0.000001 -6.545455
v -6.545455 0.000001 -8.000000
v -8.000000 0.000001 -8.000000
v -5.090909 0.000001 -6.545455
v -5.090909 0.000001 -8.000000
v -3.636364 0.000001 -6.545455
v -3.636364 0.000001 -8.000000
v -2.181818 0.000001 -6.545455
v -2.181818 0.000001 -8.000000
v -0.727273 -0.499999 -6.545455
v -0.727273 -0.499999 -8.000000
v 0.727273 -0.499999 -6.545455
v 0.727273 -0.499999 -8.000000
v 2.181818 -0.499999 -6.545455
v 2.181818 -0.499999 -8.000000
v 3.636364 0.000001 -6.545455
v 3.636364 0.000001 -8.000000
v 5.090909 0.000001 -6.545455
v 5.090909 0.000001 -8.000000
v -8.000000 -0.000001 8.000000
v -6.545455 -0.000001 8.000000
v -6.545455 -0.000001 6.545455
v -8.000000 -0.000001 6.545455
v -6.545455 -0.000001 5.090909
v -8.000000 -0.000001 5.090909
v -6.545455 -0.000001 3.636364
v -8.000000 -0.000001 3.636364
v -6.545455 -0.000000 2.181818
v -8.000000 -0.000000 2.181818
v -6.545455 -0.000000 0.727273
v -8.000000 -0.000000 0.727273
v -6.545455 0.000000 -0.727273
v -8.000000 0.000000 -0.727273
v -6.545455 0.000000 -2.181818
v -8.000000 0.000000 -2.181818
v -6.545455 0.000001 -3.636364
v -8.000000 0.000001 -3.636364
v -6.545455 0.000001 -5.090909
v -8.000000 0.000001 -5.090909
v -5.090909 -0.000001 8.000000
v -5.090909 -0.000001 6.545455
v -5.090909 -0.000001 5.090909
v -5.090909 -0.000001 3.636364
v -5.090909 -0.000000 2.181818
v -5.090909 -0.000000 0.727273
v -5.090909 0.000000 -0.727273
v -5.090909 0.000000 -2.181818
v -5.090909 0.000001 -3.636364
v -5.090909 0.000001 -5.090909
v -3.636364 -0.000001 8.000000
v -3.636364 -0.000001 6.545455
v -3.636364 -0.000001 5.090909
v -3.636364 -0.000001 3.636364
v -3.636364 -0.000000 2.181818
v -3.636364 -0.000000 0.727273
v -3.636364 0.000000 -0.727273
v -3.636364 0.000000 -2.181818
v -3.636364 0.000001 -3.636364
v -3.636364 0.000001 -5.090909
v -2.181818 -0.500001 8.000000
v -2.181818 -0.500001 6.545455
v -2.181818 -0.500001 5.090909
v -2.181818 -0.500001 3.636364
v -2.181818 -0.500000 2.181818
v -2.181818 -0.500000 0.727273
v -2.181818 -0.500000 -0.727273
v -0.727273 -0.500000 -2.181818
v -0.727273 -0.500000 -0.727273
v -2.181818 0.000001 -3.636364
v -2.181818 0.000001 -5.090909
v -0.727273 -0.500001 8.000000
v -0.727273 -0.500001 6.545455
v -0.727273 -0.500001 5.090909
v -0.727273 -0.500001 3.636364
v -0.727273 -0.500000 2.181818
v -0.727273 -0.500000 0.727273
v -0.727273 -0.499999 -3.636364
v -0.727273 -0.499999 -5.090909
v 0.727273 -0.500001 8.000000
v 0.727273 -0.500001 6.545455
v 0.727273 -0.500001 5.090909
v 0.727273 -0.500001 3.636364
v 0.727273 -0.500000 2.181818
v 0.727273 -0.500000 0.727273
v 0.727273 -0.500000 -0.727273
v 0.727273 -0.500000 -2.181818
v 0.727273 -0.499999 -3.636364
v 0.727273 -0.499999 -5.090909
v 2.181818 -0.000001 8.000000
v 2.181818 -0.000001 6.545455
v 2.181818 -0.000001 5.090909
v 2.181818 -0.000001 3.636364
v 2.181818 -0.500000 0.727273
v 2.181818 -0.500000 -0.727273
v 2.181818 -0.500000 -2.181818
v 2.181818 -0.499999 -3.636364
v 2.181818 -0.499999 -5.090909
v 3.636364 -0.000001 8.000000
v 3.636364 -0.000001 6.545455
v 3.636364 -0.000001 5.090909
v 3.636364 -0.000001 3.636364
v 3.636364 -0.000000 0.727273
v 3.636364 0.000000 -0.727273
v 3.636364 0.000000 -2.181818
v 3.636364 0.000001 -3.636364
v 3.636364 0.000001 -5.090909
v 5.090909 -0.000001 8.000000
v 5.090909 -0.000001 6.545455
v 5.090909 -0.000001 5.090909
v 5.090909 -0.000001 3.636364
v 5.090909 -0.000000 2.181818
v 3.636364 -0.000000 2.181818
v 5.090909 -0.000000 0.727273
v 5.090909 0.000000 -0.727273
v 5.090909 0.000000 -2.181818
v 5.090909 0.000001 -3.636364
v 5.090909 0.000001 -5.090909
v 6.545455 -0.000001 8.000000
v 6.545455 -0.000001 6.545455
v 6.545455 -0.000001 5.090909
v 6.545455 -0.000001 3.636364
v 6.545455 -0.000000 2.181818
v 6.545455 -0.000000 0.727273
v 6.545455 0.000000 -0.727273
v 6.545455 0.000000 -2.181818
v 6.545455 0.000001 -3.636364
v 6.545455 0.000001 -5.090909
v 8.000000 -0.000001 8.000000
v 8.000000 -0.000001 6.545455
v 8.000000 -0.000001 5.090909
v 8.000000 -0.000001 3.636364
v 8.000000 -0.000000 2.181818
v 8.000000 -0.000000 0.727273
v 8.000000 0.000000 -0.727273
v 8.000000 0.000000 -2.181818
v 8.000000 0.000001 -3.636364
v 8.000000 0.000001 -5.090909
vt 0.900889 0.090141
vt 0.900792 0.000196
vt 0.990739 0.000100
vt 0.990835 0.090047
vt 0.899707 0.999582
vt 0.900003 0.909686
vt 0.989921 0.910017
vt 0.989596 0.999900
vt 0.900330 0.819755
vt 0.990285 0.820109
vt 0.900701 0.729823
vt 0.990669 0.730150
vt 0.901068 0.639864
vt 0.990976 0.640104
vt 0.901195 0.544905
vt 0.991098 0.544971
vt 0.901189 0.455038
vt 0.991112 0.455023
vt 0.901140 0.365120
vt 0.991078 0.365069
vt 0.901066 0.270021
vt 0.991010 0.269948
vt 0.900982 0.180082
vt 0.990927 0.179996
vt 0.000472 0.999899
vt 0.000376 0.909952
vt 0.090322 0.909858
vt 0.090419 0.999803
vt 0.180264 0.909761
vt 0.180367 0.999704
vt 0.270203 0.909657
vt 0.270313 0.999598
vt 0.360137 0.909539
vt 0.360260 0.999481
vt 0.450073 0.909404
vt 0.450208 0.999354
vt 0.540044 0.909251
vt 0.540166 0.999220
vt 0.630099 0.909135
vt 0.630114 0.999111
vt 0.720080 0.909190
vt 0.719975 0.999132
vt 0.810055 0.909393
vt 0.809831 0.999306
vt 0.000284 0.820003
vt 0.090229 0.819917
vt 0.180166 0.819827
vt 0.270095 0.819729
vt 0.360012 0.819617
vt 0.449909 0.819472
vt 0.539854 0.819248
vt 0.630113 0.818982
vt 0.720202 0.819081
vt 0.810317 0.819401
vt 0.000202 0.730051
vt 0.090145 0.729978
vt 0.180076 0.729900
vt 0.270000 0.729817
vt 0.359904 0.729733
vt 0.449708 0.729628
vt 0.539413 0.729299
vt 0.630040 0.728402
vt 0.720247 0.728703
vt 0.810728 0.729463
vt 0.000133 0.634929
vt 0.090071 0.634879
vt 0.179990 0.634815
vt 0.269919 0.634737
vt 0.359882 0.634711
vt 0.449599 0.634906
vt 0.538510 0.635201
vt 0.631124 0.545996
vt 0.540837 0.545606
vt 0.722591 0.639181
vt 0.811414 0.639527
vt 0.000100 0.544976
vt 0.090023 0.544961
vt 0.179905 0.544904
vt 0.269820 0.544756
vt 0.360050 0.544564
vt 0.450169 0.544779
vt 0.721747 0.545153
vt 0.811416 0.544899
vt 0.000114 0.455028
vt 0.090017 0.455094
vt 0.179796 0.455100
vt 0.269464 0.454846
vt 0.360088 0.454004
vt 0.450375 0.454394
vt 0.541042 0.455220
vt 0.631161 0.455436
vt 0.721392 0.455243
vt 0.811307 0.455095
vt 0.000236 0.359895
vt 0.090144 0.360135
vt 0.179798 0.360472
vt 0.268621 0.360818
vt 0.452702 0.364799
vt 0.541612 0.365093
vt 0.631330 0.365289
vt 0.721292 0.365262
vt 0.811222 0.365184
vt 0.000544 0.269850
vt 0.090511 0.270177
vt 0.180484 0.270537
vt 0.270965 0.271296
vt 0.451798 0.270701
vt 0.541504 0.270372
vt 0.631307 0.270266
vt 0.721211 0.270183
vt 0.811136 0.270099
vt 0.000927 0.179890
vt 0.090882 0.180245
vt 0.180894 0.180599
vt 0.271010 0.180919
vt 0.361099 0.181018
vt 0.361172 0.271597
vt 0.451357 0.180752
vt 0.541302 0.180528
vt 0.631199 0.180382
vt 0.721116 0.180270
vt 0.811045 0.180172
vt 0.001291 0.089983
vt 0.091209 0.090314
vt 0.181157 0.090606
vt 0.271132 0.090810
vt 0.361113 0.090865
vt 0.451167 0.090749
vt 0.541139 0.090596
vt 0.631075 0.090460
vt 0.721009 0.090343
vt 0.810947 0.090238
vt 0.001617 0.000100
vt 0.091505 0.000418
vt 0.181381 0.000694
vt 0.271237 0.000867
vt 0.361097 0.000889
vt 0.451045 0.000780
vt 0.541003 0.000645
vt 0.630952 0.000518
vt 0.720898 0.000401
vt 0.810844 0.000295
vn 0.0000 1.0000 0.0000
vn 0.3251 0.9457 0.0000
vn -0.3251 0.9457 0.0000
vn 0.1694 0.9855 0.0000
vn 0.0000 0.9457 0.3251
vn 0.0000 0.9457 -0.3251
vn -0.1694 0.9855 0.0000
usemtl None
s 1
f 1/1/1 2/2/1 3/3/1 4/4/1
f 5/5/1 6/6/1 7/7/1 8/8/1
f 6/6/1 9/9/1 10/10/1 7/7/1
f 9/9/1 11/11/1 12/12/1 10/10/1
f 11/11/1 13/13/1 14/14/1 12/12/1
f 13/13/2 15/15/2 16/16/2 14/14/2
f 15/15/1 17/17/1 18/18/1 16/16/1
f 17/17/1 19/19/1 20/20/1 18/18/1
f 19/19/3 21/21/3 22/22/3 20/20/3
f 21/21/1 23/23/1 24/24/1 22/22/1
f 23/23/1 1/1/1 4/4/1 24/24/1
f 25/25/1 26/26/1 27/27/1 28/28/1
f 28/28/1 27/27/1 29/29/1 30/30/1
f 30/30/1 29/29/1 31/31/1 32/32/1
f 32/32/1 31/31/1 33/33/1 34/34/1
f 34/34/1 33/33/1 35/35/1 36/36/1
f 36/36/1 35/35/1 37/37/1 38/38/1
f 38/38/1 37/37/1 39/39/1 40/40/1
f 40/40/1 39/39/1 41/41/1 42/42/1
f 42/42/1 41/41/1 43/43/1 44/44/1
f 44/44/1 43/43/1 6/6/1 5/5/1
f 26/26/1 45/45/1 46/46/1 27/27/1
f 27/27/1 46/46/1 47/47/1 29/29/1
f 29/29/1 47/47/1 48/48/1 31/31/1
f 31/31/1 48/48/1 49/49/1 33/33/1
f 33/33/1 49/49/1 50/50/1 35/35/1
f 35/35/1 50/50/1 51/51/1 37/37/1
f 37/37/1 51/51/1 52/52/1 39/39/1
f 39/39/1 52/52/1 53/53/1 41/41/1
f 41/41/1 53/53/1 54/54/1 43/43/1
f 43/43/1 54/54/1 9/9/1 6/6/1
f 45/45/1 55/55/1 56/56/1 46/46/1
f 46/46/1 56/56/1 57/57/1 47/47/1
f 47/47/1 57/57/1 58/58/1 48/48/1
f 48/48/1 58/58/1 59/59/1 49/49/1
f 49/49/1 59/59/1 60/60/1 50/50/1
f 50/50/1 60/60/1 61/61/1 51/51/1
f 51/51/1 61/61/1 62/62/1 52/52/1
f 52/52/1 62/62/1 63/63/1 53/53/1
f 53/53/1 63/63/1 64/64/1 54/54/1
f 54/54/1 64/64/1 11/11/1 9/9/1
f 55/55/2 65/65/2 66/66/2 56/56/2
f 56/56/2 66/66/2 67/67/2 57/57/2
f 57/57/2 67/67/2 68/68/2 58/58/2
f 58/58/2 68/68/2 69/69/2 59/59/2
f 59/59/2 69/69/2 70/70/2 60/60/2
f 60/60/2 70/70/2 71/71/2 61/61/2
f 72/72/4 62/62/4 73/73/4
f 63/63/1 74/74/1 75/75/1 64/64/1
f 64/64/1 75/75/1 13/13/1 11/11/1
f 65/65/1 76/76/1 77/77/1 66/66/1
f 66/66/1 77/77/1 78/78/1 67/67/1
f 67/67/1 78/78/1 79/79/1 68/68/1
f 68/68/1 79/79/1 80/80/1 69/69/1
f 69/69/1 80/80/1 81/81/1 70/70/1
f 70/70/1 81/81/1 73/73/1 71/71/1
f 63/63/4 62/62/4 72/72/4
f 74/74/2 82/82/2 83/83/2 75/75/2
f 75/75/2 83/83/2 15/15/2 13/13/2
f 76/76/1 84/84/1 85/85/1 77/77/1
f 77/77/1 85/85/1 86/86/1 78/78/1
f 78/78/1 86/86/1 87/87/1 79/79/1
f 79/79/1 87/87/1 88/88/1 80/80/1
f 80/80/1 88/88/1 89/89/1 81/81/1
f 81/81/1 89/89/1 90/90/1 73/73/1
f 73/73/1 90/90/1 91/91/1 72/72/1
f 72/72/1 91/91/1 92/92/1 82/82/1
f 82/82/1 92/92/1 93/93/1 83/83/1
f 83/83/1 93/93/1 17/17/1 15/15/1
f 84/84/3 94/94/3 95/95/3 85/85/3
f 85/85/3 95/95/3 96/96/3 86/86/3
f 86/86/3 96/96/3 97/97/3 87/87/3
f 61/61/2 71/71/2 62/62/2
f 74/74/5 63/63/5 72/72/5
f 89/89/1 98/98/1 99/99/1 90/90/1
f 90/90/1 99/99/1 100/100/1 91/91/1
f 91/91/1 100/100/1 101/101/1 92/92/1
f 92/92/1 101/101/1 102/102/1 93/93/1
f 93/93/1 102/102/1 19/19/1 17/17/1
f 94/94/1 103/103/1 104/104/1 95/95/1
f 95/95/1 104/104/1 105/105/1 96/96/1
f 96/96/1 105/105/1 106/106/1 97/97/1
f 62/62/5 71/71/5 73/73/5
f 82/82/2 74/74/2 72/72/2
f 98/98/3 107/107/3 108/108/3 99/99/3
f 99/99/3 108/108/3 109/109/3 100/100/3
f 100/100/3 109/109/3 110/110/3 101/101/3
f 101/101/3 110/110/3 111/111/3 102/102/3
f 102/102/3 111/111/3 21/21/3 19/19/3
f 103/103/1 112/112/1 113/113/1 104/104/1
f 104/104/1 113/113/1 114/114/1 105/105/1
f 105/105/1 114/114/1 115/115/1 106/106/1
f 106/106/1 115/115/1 116/116/1 117/117/1
f 117/117/1 116/116/1 118/118/1 107/107/1
f 107/107/1 118/118/1 119/119/1 108/108/1
f 108/108/1 119/119/1 120/120/1 109/109/1
f 109/109/1 120/120/1 121/121/1 110/110/1
f 110/110/1 121/121/1 122/122/1 111/111/1
f 111/111/1 122/122/1 23/23/1 21/21/1
f 112/112/1 123/123/1 124/124/1 113/113/1
f 113/113/1 124/124/1 125/125/1 114/114/1
f 114/114/1 125/125/1 126/126/1 115/115/1
f 115/115/1 126/126/1 127/127/1 116/116/1
f 116/116/1 127/127/1 128/128/1 118/118/1
f 118/118/1 128/128/1 129/129/1 119/119/1
f 119/119/1 129/129/1 130/130/1 120/120/1
f 120/120/1 130/130/1 131/131/1 121/121/1
f 121/121/1 131/131/1 132/132/1 122/122/1
f 122/122/1 132/132/1 1/1/1 23/23/1
f 123/123/1 133/133/1 134/134/1 124/124/1
f 124/124/1 134/134/1 135/135/1 125/125/1
f 125/125/1 135/135/1 136/136/1 126/126/1
f 126/126/1 136/136/1 137/137/1 127/127/1
f 127/127/1 137/137/1 138/138/1 128/128/1
f 128/128/1 138/138/1 139/139/1 129/129/1
f 129/129/1 139/139/1 140/140/1 130/130/1
f 130/130/1 140/140/1 141/141/1 131/131/1
f 131/131/1 141/141/1 142/142/1 132/132/1
f 132/132/1 142/142/1 2/2/1 1/1/1
f 87/87/3 97/97/3 88/88/3
f 97/97/6 106/106/6 88/88/6
f 117/117/7 88/88/7 106/106/7
f 88/88/7 117/117/7 89/89/7
f 89/89/6 117/117/6 98/98/6
f 117/117/3 107/107/3 98/98/3
